# xmcd CD database file
#
# Track frame offsets:
#	150
#	18782
#	34487
#
# Disc length: 750 seconds
#
# Revision: 3
# Processed by: cddbd v1.5.2PL0 Copyright (c) Steve Scherf et al.
# Submitted via: CDex 1.70beta2
#
DISCID=1b02ec03
DTITLE=GONTITI - Somewhere Before
DYEAR=1996
DGENRE=New Age
TTITLE0=Ray Of Hope
TTITLE1=Happy Shower
TTITLE2=Be Good At It (Dance Mix 2)
EXTD=YEAR: 1996
EXTT0=
EXTT1=
EXTT2=
PLAYORDER=
